<?xml version="1.0" encoding="UTF-8"?>
<svg version="1.1" xmlns="http://www.w3.org/2000/svg" width="500" height="500">
<path d="M0 0 C0.99 0 1.98 0 3 0 C3.34998047 1.07701172 3.34998047 1.07701172 3.70703125 2.17578125 C6.66902275 10.58030129 10.65340559 17.93805621 15.25317383 25.55004883 C15.72134521 26.32888428 16.1895166 27.10771973 16.671875 27.91015625 C17.0956543 28.60246338 17.51943359 29.29477051 17.95605469 30.00805664 C19.0020683 32.0039465 19.55276602 33.79925155 20 36 C20.66 36 21.32 36 22 36 C37.28474787 63.33310259 37.28474787 63.33310259 33.34375 79.73046875 C29.98083395 89.07995519 24.27156721 96.0949559 15.5390625 100.84375 C6.24920634 105.07420758 -3.26984594 104.56787049 -12.7734375 101.05859375 C-21.69989222 96.81461265 -27.18943228 90.06036337 -30.80859375 80.96875 C-34.84336255 67.38966604 -30.18207903 54.63846165 -23.75 42.6875 C-22.51841015 40.4469622 -21.26590877 38.22148554 -20 36 C-19.34 36 -18.68 36 -18 36 C-17.86464844 35.20722656 -17.86464844 35.20722656 -17.7265625 34.3984375 C-16.74404959 31.15508845 -15.10242489 28.53961265 -13.375 25.625 C-9.24755525 18.56840091 -5.58553623 11.34550395 -2 4 C-1.33507227 2.66579861 -0.66926449 1.33203126 0 0 Z " fill="#66BB6A" transform="translate(249,130)"/>
<path fill="#E8F5E9" opacity="1.000000" stroke="none" 
	d="
M375.242676,202.984833 
	C374.161743,215.693924 373.080780,228.403030 371.961853,241.547760 
	C370.838593,246.918152 369.883575,251.886124 368.636536,256.779694 
	C366.892303,263.624481 364.930359,270.413818 363.135986,277.616638 
	C361.820038,280.369934 360.249420,282.647278 359.070648,285.112000 
	C354.089111,295.528015 346.988129,304.121063 337.628479,310.901733 
	C334.000549,313.530029 330.578735,316.442841 327.011597,319.572876 
	C321.653961,322.475250 316.201447,324.770050 311.074493,327.645294 
	C302.646667,332.371735 294.075043,336.975861 286.226562,342.562378 
	C278.781006,347.862000 272.185974,354.356537 265.082581,360.647339 
	C264.474396,361.293762 264.000458,361.618439 263.261963,362.063049 
	C261.860535,360.909180 260.723663,359.635345 259.260193,357.741974 
	C258.269562,346.436249 257.052399,335.744202 257.165070,325.066193 
	C257.225159,319.370300 259.582672,313.698639 261.051758,307.703735 
	C264.488770,303.964203 267.273132,299.746246 271.164703,297.264618 
	C281.053680,290.958466 291.438293,285.429535 301.886261,279.367676 
	C307.908539,275.704102 313.941803,272.571869 317.031860,266.061218 
	C317.065186,266.061066 317.067413,265.994415 317.351440,265.977661 
	C318.103485,265.306091 318.571442,264.651276 318.945618,263.985229 
	C318.851807,263.973938 318.870789,264.161957 319.108948,264.062622 
	C319.464203,263.837158 319.581238,263.711060 319.873962,263.450348 
	C320.274200,263.119659 320.464142,262.894440 320.764465,262.550842 
	C321.052094,262.165436 321.194763,261.869232 321.587738,261.548462 
	C324.035675,258.929840 326.233337,256.335785 328.539551,253.735382 
	C328.648132,253.729050 328.691589,253.515884 328.928284,253.349518 
	C329.796265,252.455978 330.427612,251.728790 331.288147,250.941681 
	C331.807343,250.704819 331.976837,250.448273 332.288452,250.026398 
	C332.728241,249.631104 332.905457,249.321533 333.056763,249.035431 
	C333.030823,249.058914 333.081909,249.106689 333.445557,249.081085 
	C335.598663,248.030273 337.349701,246.929672 339.184631,245.993561 
	C345.443665,242.800522 348.213684,243.075317 351.974457,247.549591 
	C351.628571,249.483627 351.616364,251.250961 350.807312,252.503677 
	C349.023804,255.265228 346.611755,257.624359 344.860382,260.402496 
	C339.996490,268.117859 335.447449,276.032257 330.557556,283.730469 
	C327.839661,288.009338 324.689392,292.013580 321.733978,296.141602 
	C322.018768,296.556763 322.303528,296.971893 322.588318,297.387024 
	C324.555115,296.573120 327.082031,296.268738 328.377716,294.844360 
	C331.543030,291.364746 334.299133,287.474670 336.929352,283.554779 
	C341.930389,276.101532 346.286957,268.173218 351.735474,261.074921 
	C357.110168,254.072815 358.577423,249.352371 355.012573,243.547089 
	C351.882233,240.408386 351.952209,237.743744 353.339569,233.643005 
	C355.684784,226.711090 356.407623,219.230316 357.886047,211.600540 
	C359.336884,207.112183 360.190735,202.716202 362.242950,198.978088 
	C364.183960,195.442444 366.905579,191.917007 370.158875,189.633804 
	C373.649872,187.183716 376.042267,188.980759 376.004059,193.327057 
	C375.975769,196.548294 375.512299,199.765717 375.242676,202.984833 
z"/>
<path fill="#E8F5E9" opacity="1.000000" stroke="none" 
	d="
M217.774704,177.999039 
	C217.774704,177.999039 217.940063,177.533752 218.310028,177.148621 
	C220.135849,173.862305 221.591736,170.961151 223.285706,167.986420 
	C223.829086,167.724930 224.003952,167.453110 224.048386,167.097382 
	C227.938705,160.965408 231.829010,154.833420 235.770676,148.359879 
	C238.210464,143.278122 240.598907,138.537933 243.047134,133.436615 
	C244.405869,130.171555 245.598175,127.212700 247.052124,124.388535 
	C247.705185,123.119987 248.963043,121.136063 249.803101,121.205727 
	C251.515091,121.347672 253.930084,122.236763 254.639725,123.571014 
	C257.108521,128.212814 258.873779,133.222290 261.100037,138.001862 
	C262.656158,141.342682 264.528168,144.536331 266.581970,147.944519 
	C268.742767,151.737137 270.434357,155.464981 272.463226,158.999146 
	C274.207489,162.037506 276.336853,164.854782 278.615356,167.912018 
	C279.684479,169.371002 280.434174,170.687790 281.543365,172.026245 
	C282.440674,174.041702 282.887604,176.065460 283.533569,178.023560 
	C285.377716,183.613251 287.302765,189.176254 289.588837,195.389755 
	C290.073120,214.660156 284.446594,229.898270 265.539612,237.278763 
	C265.286163,237.377701 265.147858,237.771683 264.556641,238.054291 
	C256.195679,240.455658 248.165390,241.283356 239.672089,239.112915 
	C238.896744,239.040848 238.453415,239.004883 237.941864,238.740143 
	C237.679703,238.173553 237.403732,238.081436 236.720444,238.060791 
	C235.270279,237.575943 234.145386,237.265335 232.877655,236.667725 
	C231.489822,235.652145 230.244812,234.923553 228.736923,234.083160 
	C228.011551,233.648865 227.549072,233.326370 226.989716,232.719177 
	C226.265778,232.013824 225.638687,231.593155 224.772202,231.105164 
	C224.532806,231.037857 224.043549,230.948517 223.902328,230.633286 
	C222.814453,229.012650 221.922867,227.662842 220.912277,226.408981 
	C213.844986,217.640381 211.249344,207.524658 212.083893,196.469315 
	C212.299942,193.607346 213.218353,190.798416 213.974609,187.638870 
	C215.348297,184.208099 216.561493,181.103561 217.774704,177.999039 
M268.830902,164.317993 
	C265.599731,158.848587 262.368530,153.379181 259.024780,147.172287 
	C256.461304,141.689163 253.897812,136.206024 250.759323,129.493011 
	C247.746994,136.517624 245.301010,142.221573 242.208313,148.195068 
	C239.158539,153.267654 236.067780,158.316422 233.092560,163.432373 
	C232.476074,164.492447 232.288712,165.802063 231.285934,167.266266 
	C229.589264,169.848785 227.892578,172.431305 226.035950,175.757980 
	C223.417923,182.510437 220.799896,189.262894 218.033981,196.914001 
	C218.027802,198.736328 217.836761,200.580414 218.048340,202.377090 
	C218.845352,209.145340 220.025116,215.804413 225.282593,221.662628 
	C229.231674,227.648346 235.167191,230.710617 241.680771,233.070908 
	C250.184448,236.152328 258.115997,234.051331 266.665405,230.731262 
	C272.064392,227.112808 277.482330,223.512451 280.170471,216.317856 
	C284.060394,209.961151 285.168182,203.204910 282.982941,195.157196 
	C281.329742,190.437134 279.676575,185.717056 277.959717,180.255814 
	C275.008728,175.162323 272.057739,170.068817 268.830902,164.317993 
z"/>
<path fill="#E8F5E9" opacity="1.000000" stroke="none" 
	d="
M242.029572,308.047394 
	C242.691757,310.292572 243.324646,312.546875 244.021149,314.781342 
	C246.981918,324.279846 246.293777,333.890045 244.958130,343.528046 
	C244.277145,348.442017 243.862595,353.407135 242.872299,358.256134 
	C242.535019,359.907745 240.805573,361.274994 239.373810,362.837708 
	C232.207062,354.492126 223.704437,348.055695 214.345367,342.126709 
	C211.929504,340.675659 209.839386,339.343079 207.283707,337.645630 
	C205.915344,336.829376 205.012558,336.378021 204.109772,335.926636 
	C204.109772,335.926636 204.097290,335.949829 204.032135,335.680145 
	C203.658203,335.312195 203.349426,335.213928 203.040649,335.115631 
	C202.871399,335.094330 202.702148,335.073029 202.219452,334.761414 
	C201.704834,334.131592 201.420380,334.033600 201.052658,334.177094 
	C200.568695,333.845245 200.084717,333.513397 199.268433,332.800812 
	C198.641525,332.334381 198.346939,332.248688 198.052353,332.163025 
	C197.874451,332.138336 197.696533,332.113617 197.198257,331.795471 
	C196.683807,331.168793 196.406876,331.071655 196.047073,331.210541 
	C195.870148,331.163910 195.693207,331.117310 195.170624,330.814453 
	C194.646484,330.255859 194.390152,330.158600 194.055969,330.266388 
	C185.628922,325.190613 177.201859,320.114838 168.420624,314.974304 
	C165.181961,312.581512 162.158798,310.404114 159.437637,307.898743 
	C149.135727,298.414001 141.929260,286.989777 138.040344,273.471680 
	C136.090469,266.693878 133.830688,260.005219 131.367401,252.875916 
	C131.023743,252.475571 131.090683,252.028458 131.414795,251.811676 
	C131.174042,248.724976 130.609207,245.855072 130.015564,242.522934 
	C129.582794,236.371704 129.178818,230.682709 128.820053,224.574158 
	C128.568512,220.777618 128.376541,217.387283 127.948036,214.027100 
	C127.431175,209.974106 126.713585,205.946701 126.070053,201.957245 
	C126.057220,202.006287 126.108521,201.918060 126.051971,201.465820 
	C125.996651,198.524170 125.971573,196.034409 126.004829,193.545441 
	C126.066025,188.966583 128.470932,187.240585 132.218231,189.966644 
	C135.332718,192.232300 138.549393,195.618668 139.656555,199.154907 
	C143.566956,211.644608 146.649292,224.397171 149.846497,237.100174 
	C150.126266,238.211716 149.254349,239.944077 148.403229,240.955353 
	C143.056244,247.308487 144.607330,256.556854 151.981110,261.498230 
	C155.895416,268.225769 160.005936,274.472626 163.540237,281.030029 
	C167.483322,288.345825 171.898727,295.074646 179.593307,298.913330 
	C180.398376,299.314941 181.497330,299.127441 182.791977,299.242889 
	C178.814041,294.244659 175.052826,290.116882 171.979279,285.528503 
	C166.143631,276.816650 160.701706,267.841125 154.976227,258.644287 
	C154.107086,257.276093 153.432159,256.174042 152.594849,255.213547 
	C150.164078,252.425110 148.475266,249.177582 151.122086,246.027969 
	C153.713440,242.944351 157.511108,243.366409 160.959824,244.937897 
	C163.686966,246.180573 166.293381,247.688110 168.972137,249.045746 
	C168.990845,249.013458 168.925278,249.049118 169.072159,249.348938 
	C171.810745,252.107910 174.402466,254.567047 177.000153,257.011475 
	C177.006134,256.996796 176.975510,257.004883 177.084717,257.298279 
	C178.119934,258.414551 179.045914,259.237427 179.981750,260.031311 
	C179.991623,260.002350 179.931808,260.015259 180.015793,260.249023 
	C180.099777,260.482758 180.461365,260.822784 180.461365,260.822784 
	C180.461365,260.822784 180.957535,260.811829 181.223022,260.936188 
	C181.713547,261.372040 181.938583,261.683563 182.112915,262.345428 
	C183.679108,264.825348 185.295975,266.954926 187.037079,269.398193 
	C192.628677,273.534119 197.879486,277.726959 203.620255,281.081268 
	C210.233124,284.945129 217.419113,287.820953 224.085587,291.602875 
	C228.290192,293.988129 231.999023,297.247253 235.970032,300.443481 
	C237.310776,302.179321 238.611725,303.586029 239.910461,305.039185 
	C239.908264,305.085632 240.000717,305.095642 240.007843,305.410461 
	C240.662811,306.469238 241.310623,307.213196 241.957336,307.994629 
	C241.956238,308.032074 242.029572,308.047394 242.029572,308.047394 
z"/>
<path fill="#E8F5E9" opacity="1.000000" stroke="none" 
	d="
M354.007599,208.561523 
	C352.219330,216.449417 350.463531,223.937836 348.752350,231.436447 
	C347.790009,235.653641 347.174835,240.095108 340.985168,239.110764 
	C340.188995,238.984146 339.229004,239.887543 337.778809,240.651886 
	C336.499634,240.962143 335.786560,240.934296 335.073486,240.906433 
	C336.375031,237.843063 337.885284,234.849503 338.937653,231.702820 
	C341.715637,223.396545 343.960052,214.893738 347.125458,206.744415 
	C348.318146,203.673798 351.460785,201.360596 353.881470,198.402740 
	C354.773132,198.059845 355.497894,198.016312 356.585602,197.997009 
	C355.985291,201.402924 355.022003,204.784622 354.007599,208.561523 
z"/>
<path fill="#E8F5E9" opacity="1.000000" stroke="none" 
	d="
M145.052368,198.075195 
	C153.019485,198.350418 154.411072,205.127777 156.499771,210.423874 
	C160.357422,220.205276 163.340424,230.331879 166.653976,240.325897 
	C166.725601,240.541931 166.389450,240.893158 166.230072,241.207916 
	C162.801041,240.266785 159.357895,239.321777 154.733459,238.052567 
	C152.980621,230.065475 151.127441,221.118713 149.020844,212.232025 
	C147.950256,207.715775 146.423309,203.307724 145.107681,198.468384 
	C145.112701,198.086029 145.017746,198.033127 145.052368,198.075195 
z"/>
</svg>
