<?xml version="1.0" standalone="no"?>
<!DOCTYPE svg PUBLIC "-//W3C//DTD SVG 20010904//EN"
 "http://www.w3.org/TR/2001/REC-SVG-20010904/DTD/svg10.dtd">
<svg version="1.0" xmlns="http://www.w3.org/2000/svg"
 width="32.000000pt" height="32.000000pt" viewBox="0 0 32.000000 32.000000"
 preserveAspectRatio="xMidYMid meet">

<g transform="translate(0.000000,32.000000) scale(0.100000,-0.100000)"
fill="#000000" stroke="none">
<path d="M90 298 c-33 -17 -51 -35 -67 -68 -29 -56 -29 -84 -1 -140 25 -48 89
-90 138 -90 49 0 113 42 138 90 28 56 28 84 0 140 -25 48 -89 90 -138 90 -14
0 -46 -10 -70 -22z m65 -69 c4 -5 -1 -19 -11 -30 -17 -19 -16 -19 49 -19 60 0
67 -2 67 -20 0 -18 -7 -20 -67 -20 -63 0 -65 -1 -50 -18 22 -24 22 -42 0 -42
-21 0 -83 59 -83 79 0 18 59 81 76 81 7 0 16 -5 19 -11z"/>
</g>
</svg>
